<svg width="12" height="16" viewBox="0 0 12 16" fill="none" xmlns="http://www.w3.org/2000/svg">
<path fill-rule="evenodd" clip-rule="evenodd" d="M9.33329 3.83333C9.33329 5.67167 7.83829 7.16667 5.99996 7.16667C4.16163 7.16667 2.66663 5.67167 2.66663 3.83333C2.66663 1.995 4.16163 0.5 5.99996 0.5C7.83829 0.5 9.33329 1.995 9.33329 3.83333ZM5.99996 2.16667C6.91913 2.16667 7.66663 2.91417 7.66663 3.83333C7.66663 4.7525 6.91913 5.5 5.99996 5.5C5.08079 5.5 4.33329 4.7525 4.33329 3.83333C4.33329 2.91417 5.08079 2.16667 5.99996 2.16667ZM11.8333 14.6667C11.8333 15.1267 11.4608 15.5 11 15.5C10.5391 15.5 10.1666 15.1267 10.1666 14.6667C10.1666 12.3692 8.29746 10.5 5.99996 10.5C3.70246 10.5 1.83329 12.3692 1.83329 14.6667C1.83329 15.1267 1.46079 15.5 0.999959 15.5C0.539126 15.5 0.166626 15.1267 0.166626 14.6667C0.166626 11.45 2.78413 8.83333 5.99996 8.83333C9.21579 8.83333 11.8333 11.45 11.8333 14.6667Z" fill="#7A7A7A"/>
</svg>